HIERARCHY
ROOT Hips
{
	OFFSET	0.00	0.00	0.00
	CHANNELS 6 Xposition Yposition Zposition Zrotation Xrotation Yrotation
	JOINT LeftUpLeg
	{
		OFFSET	 0.126116	-0.014019	-0.065224
		CHANNELS 3 Zrotation Xrotation Yrotation
		JOINT LeftLeg
		{
			OFFSET	 0.000000	 0.000000	 0.569914
			CHANNELS 3 Zrotation Xrotation Yrotation
			JOINT LeftFoot
			{
				OFFSET	 0.000000	 0.000000	 0.544423
				CHANNELS 3 Zrotation Xrotation Yrotation
				JOINT LeftToeBase
				{
					OFFSET	 0.000000	 0.000000	 0.207117
					CHANNELS 3 Zrotation Xrotation Yrotation
					End Site
					{
						OFFSET	 0.000000	 0.000000	 0.207117
					}
				}
			}
		}
	}
	JOINT RightUpLeg
	{
		OFFSET	-0.124023	-0.008373	-0.065224
		CHANNELS 3 Zrotation Xrotation Yrotation
		JOINT RightLeg
		{
			OFFSET	 0.000000	 0.000000	 0.570047
			CHANNELS 3 Zrotation Xrotation Yrotation
			JOINT RightFoot
			{
				OFFSET	 0.000000	 0.000000	 0.544354
				CHANNELS 3 Zrotation Xrotation Yrotation
				JOINT RightToeBase
				{
					OFFSET	 0.000000	 0.000000	 0.207540
					CHANNELS 3 Zrotation Xrotation Yrotation
					End Site
					{
						OFFSET	 0.000000	 0.000000	 0.207540
					}
				}
			}
		}
	}
	JOINT Spine
	{
		OFFSET	 0.000184	-0.007763	 0.117403
		CHANNELS 3 Zrotation Xrotation Yrotation
		JOINT Spine1
		{
			OFFSET	 0.000000	 0.000000	 0.137269
			CHANNELS 3 Zrotation Xrotation Yrotation
			JOINT Spine2
			{
				OFFSET	 0.000000	 0.000000	 0.156879
				CHANNELS 3 Zrotation Xrotation Yrotation
				JOINT LeftShoulder
				{
					OFFSET	 0.080501	-0.002496	 0.160144
					CHANNELS 3 Zrotation Xrotation Yrotation
					JOINT LeftArm
					{
						OFFSET	 0.000000	 0.000000	 0.164363
						CHANNELS 3 Zrotation Xrotation Yrotation
						JOINT LeftForeArm
						{
							OFFSET	 0.000000	 0.000000	 0.364576
							CHANNELS 3 Zrotation Xrotation Yrotation
							JOINT LeftHand
							{
								OFFSET	 0.000000	 0.000000	 0.360812
								CHANNELS 3 Zrotation Xrotation Yrotation
								JOINT LeftHandIndex1
								{
									OFFSET	 0.000000	 0.000000	 0.086006
									CHANNELS 3 Zrotation Xrotation Yrotation
									JOINT LeftHandIndex2
									{
										OFFSET	 0.000000	 0.000000	 0.047237
										CHANNELS 3 Zrotation Xrotation Yrotation
										JOINT LeftHandIndex3
										{
											OFFSET	-0.004284	-0.000551	 0.038165
											CHANNELS 3 Zrotation Xrotation Yrotation
											End Site
											{
												OFFSET	-0.004284	-0.000551	 0.038165
											}
										}
									}
								}
							}
						}
					}
				}
				JOINT Neck
				{
					OFFSET	 0.000000	 0.000000	 0.176489
					CHANNELS 3 Zrotation Xrotation Yrotation
					JOINT Head
					{
						OFFSET	 0.000000	-0.001747	 0.077940
						CHANNELS 3 Zrotation Xrotation Yrotation
						End Site
						{
							OFFSET	 0.000000	-0.001747	 0.077940
						}
					}
				}
				JOINT RightShoulder
				{
					OFFSET	-0.080363	 0.000306	 0.159706
					CHANNELS 3 Zrotation Xrotation Yrotation
					JOINT RightArm
					{
						OFFSET	 0.000000	 0.000000	 0.164196
						CHANNELS 3 Zrotation Xrotation Yrotation
						JOINT RightForeArm
						{
							OFFSET	 0.000000	 0.000000	 0.365611
							CHANNELS 3 Zrotation Xrotation Yrotation
							JOINT RightHand
							{
								OFFSET	 0.000000	 0.000000	 0.360648
								CHANNELS 3 Zrotation Xrotation Yrotation
								JOINT RightHandIndex1
								{
									OFFSET	 0.000000	 0.000000	 0.069977
									CHANNELS 3 Zrotation Xrotation Yrotation
									JOINT RightHandIndex2
									{
										OFFSET	 0.000000	 0.000000	 0.052305
										CHANNELS 3 Zrotation Xrotation Yrotation
										JOINT RightHandIndex3
										{
											OFFSET	 0.009002	-0.000782	 0.042196
											CHANNELS 3 Zrotation Xrotation Yrotation
											End Site
											{
												OFFSET	 0.009002	-0.000782	 0.042196
											}
										}
									}
								}
							}
						}
					}
				}
			}
		}
	}
}
MOTION
Frames:    11
Frame Time: 0.03333334
-0.720207	-0.026824	 1.261568	 169.988400	-4.228415	 2.757954	-0.956774	-4.883509	 175.971700	-2.947756	-35.365090	-2.556590	-57.862170	 80.213790	 48.442160	-2.385833	 28.452760	 0.000004	-20.288830	-6.267318	-173.828500	 9.680870	-33.212970	 5.461515	 20.872950	 83.384910	-21.290600	 2.384659	 28.388700	-0.000001	-2.247031	-1.285991	-14.775870	-1.232846	 10.858430	 0.747812	 14.668580	 4.106523	 6.840176	-91.776180	 78.527430	-180.000000	 20.386370	 56.442290	-44.899270	-35.355530	 7.646086	-23.565360	-32.213630	-34.330160	-16.923970	-4.130354	 21.526190	 0.991307	-5.167926	 0.731697	 3.519349	-1.378229	 35.397820	-2.634230	 14.484430	 5.671922	-3.637041	 9.831642	-9.017097	 1.388723	 89.782150	 78.203890	 180.000000	-59.372680	 19.950550	 69.511280	 8.942180	 2.133436	 144.201300	 36.654000	 31.485440	 11.772660	 5.716295	 19.173350	-3.684826	 5.027458	 0.246833	-9.377971	-2.350882	 35.473990	 5.254307
-0.720937	-0.026337	 1.261080	 169.656700	-4.290370	 2.249768	-1.855939	-4.596612	 176.898100	-2.582746	-35.150450	-2.332184	-57.125660	 80.645130	 47.243860	-2.385833	 28.452760	 0.000004	-20.984050	-6.742551	-173.010700	 9.972960	-33.558330	 5.676324	 21.799860	 83.246370	-22.503840	 2.384659	 28.388700	-0.000001	-1.863138	-1.603831	-14.939580	-1.547533	 12.660970	 1.731764	 14.986200	 1.142084	 7.085507	-91.776110	 78.527360	 180.000000	 21.349700	 55.357510	-44.311980	-36.611940	 8.457478	-24.074200	-35.281760	-35.392340	-19.613880	-4.130354	 21.526190	 0.991307	-5.167926	 0.731697	 3.519349	-1.378229	 35.397820	-2.634230	 14.643220	 5.650166	-3.270419	 9.987102	-11.151040	-0.374304	 89.782050	 78.203900	-180.000000	-59.905470	 18.673620	 69.064800	 9.640930	 1.652035	 143.804900	 31.893940	 33.689530	 16.350510	 5.716295	 19.173350	-3.684826	 5.027458	 0.246833	-9.377971	-2.350882	 35.473990	 5.254307
-0.721140	-0.025717	 1.260558	 169.176400	-4.363698	 2.080263	-2.698081	-4.337818	 177.471100	-2.238602	-35.052120	-2.128242	-57.667260	 80.895470	 47.433510	-2.385833	 28.452760	 0.000004	-21.409660	-7.002535	-172.580500	 10.289800	-33.750080	 5.884793	 22.338220	 83.495610	-23.272980	 2.384659	 28.388700	-0.000001	-1.239212	-2.058214	-15.028380	-1.743570	 14.418710	 2.062020	 15.191180	-1.450826	 7.317340	-91.776150	 78.527400	 180.000000	 22.118480	 54.371530	-43.971970	-37.696770	 9.161703	-24.442790	-38.133430	-36.048180	-22.080700	-4.130354	 21.526190	 0.991307	-5.167926	 0.731697	 3.519349	-1.378229	 35.397820	-2.634230	 14.534910	 5.972183	-2.502431	 10.058050	-13.183650	-1.864166	 89.782150	 78.203870	 179.999900	-60.076280	 17.264220	 68.595310	 10.463440	 1.060547	 143.513600	 26.875040	 34.802650	 20.662950	 5.716295	 19.173350	-3.684826	 5.027458	 0.246833	-9.377971	-2.350882	 35.473990	 5.254307
-0.722504	-0.025228	 1.260254	 168.445100	-4.674606	 2.601146	-3.241492	-3.932855	 177.379200	-1.937349	-35.220250	-1.962940	-57.895560	 80.854240	 47.286560	-2.385833	 28.452760	 0.000004	-22.187060	-6.691579	-172.616100	 10.583960	-33.484570	 6.010469	 20.128290	 83.290040	-21.482510	 2.384659	 28.388700	-0.000001	-0.196587	-1.728062	-16.387180	-1.932919	 15.609290	 1.371246	 15.401410	-3.810878	 9.902332	-91.776260	 78.527360	-179.999900	 21.854940	 53.002590	-41.837940	-37.882410	 10.313120	-26.830220	-39.413480	-36.123840	-22.889260	-4.130354	 21.526190	 0.991307	-5.167926	 0.731697	 3.519349	-1.378229	 35.397820	-2.634230	 14.890330	 5.152172	-3.859379	 9.766869	-14.089810	-4.021152	 89.782140	 78.203850	 180.000000	-61.873090	 16.511320	 69.174630	 11.487150	 0.309688	 142.931600	 21.288760	 36.232410	 24.870040	 5.716295	 19.173350	-3.684826	 5.027458	 0.246833	-9.377971	-2.350882	 35.473990	 5.254307
-0.722602	-0.024576	 1.259696	 167.919800	-4.748307	 2.798122	-4.004383	-3.708869	 177.625300	-1.671663	-35.199210	-1.808452	-58.660940	 81.133820	 47.727150	-2.385833	 28.452760	 0.000004	-22.892640	-6.786334	-172.455400	 10.882620	-33.474570	 6.177842	 19.602440	 83.212330	-21.252230	 2.384659	 28.388700	-0.000001	 0.661546	-2.082342	-16.971460	-1.966927	 16.913810	 1.355802	 15.579860	-5.896235	 10.553880	-91.776160	 78.527360	 180.000000	 21.657880	 51.830840	-40.713720	-37.865170	 11.083900	-28.531410	-40.801590	-36.355630	-23.862770	-4.130354	 21.526190	 0.991307	-5.167926	 0.731697	 3.519349	-1.378229	 35.397820	-2.634230	 15.082790	 5.378096	-4.497078	 9.628676	-15.707020	-4.068617	 89.782160	 78.203890	 180.000000	-62.121860	 14.818150	 69.182820	 12.568170	-0.514825	 142.509900	 15.340270	 36.074300	 29.355830	 5.716295	 19.173350	-3.684826	 5.027458	 0.246833	-9.377971	-2.350882	 35.473990	 5.254307
-0.722617	-0.024024	 1.259035	 167.381700	-4.775362	 2.695669	-4.753230	-3.459831	 178.189000	-1.410276	-34.939860	-1.646849	-57.148830	 81.387170	 45.874780	-2.385833	 28.452760	 0.000004	-23.455650	-7.107393	-172.038600	 11.188030	-33.590920	 6.370224	 19.898110	 83.248090	-21.824220	 2.384659	 28.388700	-0.000001	 1.684094	-2.529227	-17.416600	-1.916790	 18.099730	 1.601616	 15.713310	-7.888073	 10.933900	-91.776220	 78.527360	-180.000000	 20.583040	 50.717670	-38.717180	-37.463110	 12.248520	-31.534460	-42.057030	-36.427620	-24.576950	-4.130354	 21.526190	 0.991307	-5.167926	 0.731697	 3.519349	-1.378229	 35.397820	-2.634230	 15.159590	 5.837450	-4.977738	 9.558663	-17.555710	-3.943338	 89.782100	 78.203890	-180.000000	-61.756370	 12.269360	 69.183110	 13.996610	-1.643495	 141.963000	 7.916686	 34.611760	 34.648860	 5.716295	 19.173350	-3.684826	 5.027458	 0.246833	-9.377971	-2.350882	 35.473990	 5.254307
-0.722438	-0.023950	 1.258403	 166.941100	-4.853316	 2.667880	-5.457293	-3.191324	 178.588300	-1.159992	-34.661160	-1.492797	-56.012310	 81.526690	 44.445180	-2.385833	 28.452760	 0.000004	-23.943450	-7.273227	-171.762900	 11.436200	-33.604380	 6.513705	 19.208450	 83.209440	-21.350670	 2.384659	 28.388700	-0.000001	 2.621776	-2.845994	-17.811790	-1.700524	 18.890780	 1.530101	 15.804150	-9.256857	 11.380700	-91.776200	 78.527380	-180.000000	 18.763780	 49.734470	-36.600830	-36.881720	 13.306430	-34.537540	-42.793840	-36.378520	-24.833860	-4.130354	 21.526190	 0.991307	-5.167926	 0.731697	 3.519349	-1.378229	 35.397820	-2.634230	 15.095870	 5.777440	-5.189040	 9.456673	-18.527450	-4.129087	 89.782100	 78.203900	-180.000000	-61.360840	 9.981828	 69.410390	 15.246420	-2.671832	 141.461800	 1.876482	 32.540060	 38.373570	 5.716295	 19.173350	-3.684826	 5.027458	 0.246833	-9.377971	-2.350882	 35.473990	 5.254307
-0.721654	-0.024194	 1.257483	 166.499500	-5.061502	 2.753043	-6.360087	-2.759653	 178.897900	-0.848476	-34.333550	-1.304530	-56.663940	 81.757780	 44.775210	-2.385833	 28.452760	 0.000004	-24.611470	-7.253478	-171.552300	 11.711030	-33.537660	 6.658765	 18.305750	 83.135700	-20.673170	 2.384659	 28.388700	-0.000001	 3.711174	-3.237190	-18.114570	-1.153090	 19.738890	 1.044023	 15.819810	-10.475030	 11.711540	-91.776250	 78.527400	-179.999900	 15.592520	 48.704780	-34.128390	-36.045340	 14.372310	-37.951790	-43.483450	-36.390230	-25.004430	-4.130354	 21.526190	 0.991307	-5.167926	 0.731697	 3.519349	-1.378229	 35.397820	-2.634230	 14.827470	 5.329049	-5.052167	 9.241899	-19.009060	-4.502658	 89.782100	 78.203850	 180.000000	-60.616600	 7.290627	 69.834050	 16.539310	-3.784979	 140.890600	-4.184244	 29.392660	 41.034180	 5.716295	 19.173350	-3.684826	 5.027458	 0.246833	-9.377971	-2.350882	 35.473990	 5.254307
-0.720779	-0.024512	 1.256407	 166.081400	-5.386309	 2.630884	-6.911978	-2.138613	 179.308800	-0.640135	-33.874880	-1.172949	-55.501130	 81.564090	 43.478480	-2.385833	 28.452760	 0.000004	-25.249670	-7.213186	-171.125100	 12.028530	-33.555710	 6.842932	 17.943180	 83.357540	-20.525320	 2.384659	 28.388700	-0.000001	 5.132523	-3.541429	-18.254210	-0.325659	 20.631850	 0.277236	 15.699330	-11.895060	 12.183030	-91.776150	 78.527420	 180.000000	 11.245360	 47.425580	-30.967050	-34.775660	 15.670920	-42.572930	-43.449500	-36.128810	-24.505440	-4.130354	 21.526190	 0.991307	-5.167926	 0.731697	 3.519349	-1.378229	 35.397820	-2.634230	 14.388540	 5.485519	-4.791488	 8.854714	-20.482910	-5.403182	 89.782140	 78.203890	 180.000000	-59.284560	 3.857316	 70.424030	 17.775340	-4.935087	 140.119000	-10.761440	 25.121340	 42.142650	 5.716295	 19.173350	-3.684826	 5.027458	 0.246833	-9.377971	-2.350882	 35.473990	 5.254307
-0.719688	-0.024825	 1.255266	 165.748700	-5.590072	 2.731500	-7.723000	-1.586824	 179.351800	-0.434359	-33.742290	-1.054500	-56.040060	 81.600060	 43.848090	-2.385833	 28.452760	 0.000004	-26.027010	-6.998058	-171.111400	 12.353770	-33.544890	 7.026700	 18.825990	 83.821910	-21.655310	 2.384659	 28.388700	-0.000001	 6.655813	-3.895375	-18.754150	 0.848999	 21.114380	-0.993054	 15.587570	-12.811990	 12.979710	-91.776250	 78.527380	-179.999900	 5.315690	 45.827580	-27.259780	-33.006760	 17.052590	-48.355050	-42.877040	-35.747400	-23.543680	-4.130354	 21.526190	 0.991307	-5.167926	 0.731697	 3.519349	-1.378229	 35.397820	-2.634230	 13.845220	 4.725544	-4.472224	 8.342782	-20.797810	-6.513336	 89.782100	 78.203890	-180.000000	-57.424570	 0.042345	 71.336180	 18.559210	-5.762930	 139.315100	-16.303450	 21.061670	 40.401260	 5.716295	 19.173350	-3.684826	 5.027458	 0.246833	-9.377971	-2.350882	 35.473990	 5.254307
-0.718468	-0.025445	 1.254083	 165.509700	-5.679893	 2.790403	-8.818455	-1.223671	 179.507800	-0.130498	-33.678470	-0.884156	-57.270650	 81.683430	 44.841470	-2.385833	 28.452760	 0.000004	-26.917020	-6.972497	-171.081400	 12.699040	-33.594640	 7.233526	 17.876990	 84.232210	-20.897010	 2.384659	 28.388700	-0.000001	 8.274006	-4.361598	-18.998000	 2.270575	 21.396880	-2.549020	 15.465890	-13.469420	 13.870840	-91.776130	 78.527420	 180.000000	-2.339180	 43.718560	-24.168780	-31.149510	 18.054460	-53.847710	-41.974570	-35.339860	-22.313700	-4.130354	 21.526190	 0.991307	-5.167926	 0.731697	 3.519349	-1.378229	 35.397820	-2.634230	 13.325390	 4.061100	-4.229680	 7.794766	-21.048170	-7.925988	 89.782070	 78.203900	-180.000000	-55.109330	-3.905296	 72.772520	 19.111980	-6.477732	 138.293600	-21.377270	 17.506720	 36.596470	 5.716295	 19.173350	-3.684826	 5.027458	 0.246833	-9.377971	-2.350882	 35.473990	 5.254307
